<svg xmlns="http://www.w3.org/2000/svg" viewBox="0 0 16.459 16.459"><path fill="#db4437" d="M13.73 2.18a.278.278 0 0 0-.3-.05l.392.925A7.642 7.642 0 0 1 6.588 15.7a.627.627 0 1 0-.137.541A8.2 8.2 0 0 0 13.73 2.18z"/><path fill="#f4b400" d="M13.264 2.385v9.841a.984.984 0 0 1-1.964 0V6.62a.279.279 0 0 0-.435-.231l-2.11 1.437a1.025 1.025 0 0 1-1.114 0L5.536 6.389a.279.279 0 0 0-.436.231v5.956a.628.628 0 1 0 .556 0v-5.43l1.676 1.139a1.563 1.563 0 0 0 1.733 0l1.674-1.139v5.08a1.541 1.541 0 0 0 3.082 0V3.057l-.392-.925a.277.277 0 0 0-.165.253z"/><path fill="#4285f4" d="M.557 8.226A7.643 7.643 0 0 1 9.808.755a.629.629 0 1 0 .138-.54 8.2 8.2 0 0 0-7.28 14.06.278.278 0 0 0 .188.073.291.291 0 0 0 .112-.023l-.393-.927A7.659 7.659 0 0 1 .557 8.226z"/><path fill="#0f9d58" d="M11.568 3.191a.627.627 0 0 0-1.14.439L8.2 5.147 4.985 2.961a1.553 1.553 0 0 0-2.41 1.273v9.167l.393.927a.279.279 0 0 0 .165-.254V4.231a.993.993 0 0 1 1.54-.81l3.37 2.293a.279.279 0 0 0 .313 0l2.386-1.623a.628.628 0 0 0 .827-.9z"/></svg>
